# xmcd
#
# Track frame offsets:
#	150
#	17107
#	33629
#	49186
#	63275
#	78336
#	97960
#	110787
#	126918
#	142998
#
# Disc length: 2161 seconds
#
# Revision: 0
# Processed by: cddbd v1.4PL0 Copyright (c) Steve Scherf et al.
# Submitted via: dBpowerAMP V4.0
#
DISCID=85086f0a
DTITLE=Cafe Quijano - La Extraordinaria Paradoja del Sonido Quijano
DYEAR=1900
DGENRE=Blues
TTITLE0=La Lola
TTITLE1=Sangre Negra
TTITLE2=Hablando A Un Cristal
TTITLE3=El Perdido
TTITLE4=Morenita
TTITLE5=Falsas Promesas
TTITLE6=Vete de Mi
TTITLE7=Los Locos
TTITLE8=Lagrimas de Miel
TTITLE9=En Algun Lugar
EXTD=
EXTT0=
EXTT1=
EXTT2=
EXTT3=
EXTT4=
EXTT5=
EXTT6=
EXTT7=
EXTT8=
EXTT9=
PLAYORDER=
